<svg width="37" height="22" viewBox="0 0 37 22" fill="none" xmlns="http://www.w3.org/2000/svg">
    <path
        d="M7.45215 22H2.80859L2.83789 18.5723H7.45215C8.60449 18.5723 9.57617 18.3135 10.3672 17.7959C11.1582 17.2686 11.7539 16.502 12.1543 15.4961C12.5645 14.4902 12.7695 13.2744 12.7695 11.8486V10.8086C12.7695 9.71484 12.6523 8.75293 12.418 7.92285C12.1934 7.09277 11.8564 6.39453 11.4072 5.82812C10.958 5.26172 10.4062 4.83691 9.75195 4.55371C9.09766 4.26074 8.3457 4.11426 7.49609 4.11426H2.7207V0.671875H7.49609C8.92188 0.671875 10.2256 0.916016 11.4072 1.4043C12.5986 1.88281 13.6289 2.57129 14.498 3.46973C15.3672 4.36816 16.0361 5.44238 16.5049 6.69238C16.9834 7.93262 17.2227 9.31445 17.2227 10.8379V11.8486C17.2227 13.3623 16.9834 14.7441 16.5049 15.9941C16.0361 17.2441 15.3672 18.3184 14.498 19.2168C13.6387 20.1055 12.6084 20.7939 11.4072 21.2822C10.2158 21.7607 8.89746 22 7.45215 22ZM5.29883 0.671875V22H0.904297V0.671875H5.29883ZM26.9639 22H22.3203L22.3496 18.5723H26.9639C28.1162 18.5723 29.0879 18.3135 29.8789 17.7959C30.6699 17.2686 31.2656 16.502 31.666 15.4961C32.0762 14.4902 32.2812 13.2744 32.2812 11.8486V10.8086C32.2812 9.71484 32.1641 8.75293 31.9297 7.92285C31.7051 7.09277 31.3682 6.39453 30.9189 5.82812C30.4697 5.26172 29.918 4.83691 29.2637 4.55371C28.6094 4.26074 27.8574 4.11426 27.0078 4.11426H22.2324V0.671875H27.0078C28.4336 0.671875 29.7373 0.916016 30.9189 1.4043C32.1104 1.88281 33.1406 2.57129 34.0098 3.46973C34.8789 4.36816 35.5479 5.44238 36.0166 6.69238C36.4951 7.93262 36.7344 9.31445 36.7344 10.8379V11.8486C36.7344 13.3623 36.4951 14.7441 36.0166 15.9941C35.5479 17.2441 34.8789 18.3184 34.0098 19.2168C33.1504 20.1055 32.1201 20.7939 30.9189 21.2822C29.7275 21.7607 28.4092 22 26.9639 22ZM24.8105 0.671875V22H20.416V0.671875H24.8105Z"
        fill="#5856D6" />
</svg>