<svg width="180" height="30" viewBox="0 0 180 30" fill="none" xmlns="http://www.w3.org/2000/svg">
    <path d="M7.45215 23H2.80859L2.83789 19.5723H7.45215C8.60449 19.5723 9.57617 19.3135 10.3672 18.7959C11.1582 18.2686 11.7539 17.502 12.1543 16.4961C12.5645 15.4902 12.7695 14.2744 12.7695 12.8486V11.8086C12.7695 10.7148 12.6523 9.75293 12.418 8.92285C12.1934 8.09277 11.8564 7.39453 11.4072 6.82812C10.958 6.26172 10.4062 5.83691 9.75195 5.55371C9.09766 5.26074 8.3457 5.11426 7.49609 5.11426H2.7207V1.67188H7.49609C8.92188 1.67188 10.2256 1.91602 11.4072 2.4043C12.5986 2.88281 13.6289 3.57129 14.498 4.46973C15.3672 5.36816 16.0361 6.44238 16.5049 7.69238C16.9834 8.93262 17.2227 10.3145 17.2227 11.8379V12.8486C17.2227 14.3623 16.9834 15.7441 16.5049 16.9941C16.0361 18.2441 15.3672 19.3184 14.498 20.2168C13.6387 21.1055 12.6084 21.7939 11.4072 22.2822C10.2158 22.7607 8.89746 23 7.45215 23ZM5.29883 1.67188V23H0.904297V1.67188H5.29883ZM24.6055 7.15039V23H20.3721V7.15039H24.6055ZM20.1084 3.01953C20.1084 2.4043 20.3232 1.89648 20.7529 1.49609C21.1826 1.0957 21.7588 0.895508 22.4814 0.895508C23.1943 0.895508 23.7656 1.0957 24.1953 1.49609C24.6348 1.89648 24.8545 2.4043 24.8545 3.01953C24.8545 3.63477 24.6348 4.14258 24.1953 4.54297C23.7656 4.94336 23.1943 5.14355 22.4814 5.14355C21.7588 5.14355 21.1826 4.94336 20.7529 4.54297C20.3232 4.14258 20.1084 3.63477 20.1084 3.01953ZM38.126 7.15039H41.9492V22.4727C41.9492 23.918 41.627 25.1436 40.9824 26.1494C40.3477 27.165 39.459 27.9316 38.3164 28.4492C37.1738 28.9766 35.8457 29.2402 34.332 29.2402C33.668 29.2402 32.9648 29.1523 32.2227 28.9766C31.4902 28.8008 30.7871 28.5273 30.1133 28.1562C29.4492 27.7852 28.8926 27.3164 28.4434 26.75L30.3037 24.2598C30.792 24.8262 31.3584 25.2656 32.0029 25.5781C32.6475 25.9004 33.3604 26.0615 34.1416 26.0615C34.9033 26.0615 35.5479 25.9199 36.0752 25.6367C36.6025 25.3633 37.0078 24.958 37.291 24.4209C37.5742 23.8936 37.7158 23.2539 37.7158 22.502V10.8125L38.126 7.15039ZM27.4619 15.2656V14.958C27.4619 13.7471 27.6084 12.6484 27.9014 11.6621C28.2041 10.666 28.6289 9.81152 29.1758 9.09863C29.7324 8.38574 30.4062 7.83398 31.1973 7.44336C31.9883 7.05273 32.8818 6.85742 33.8779 6.85742C34.9326 6.85742 35.8164 7.05273 36.5293 7.44336C37.2422 7.83398 37.8281 8.39062 38.2871 9.11328C38.7461 9.82617 39.1025 10.6709 39.3564 11.6475C39.6201 12.6143 39.8252 13.6738 39.9717 14.8262V15.5C39.8252 16.6035 39.6055 17.6289 39.3125 18.5762C39.0195 19.5234 38.6338 20.3535 38.1553 21.0664C37.6768 21.7695 37.0811 22.3164 36.3682 22.707C35.665 23.0977 34.8252 23.293 33.8486 23.293C32.8721 23.293 31.9883 23.0928 31.1973 22.6924C30.416 22.292 29.7471 21.7305 29.1904 21.0078C28.6338 20.2852 28.2041 19.4355 27.9014 18.459C27.6084 17.4824 27.4619 16.418 27.4619 15.2656ZM31.6807 14.958V15.2656C31.6807 15.9199 31.7441 16.5303 31.8711 17.0967C31.998 17.6631 32.1934 18.166 32.457 18.6055C32.7305 19.0352 33.0674 19.3721 33.4678 19.6162C33.8779 19.8506 34.3613 19.9678 34.918 19.9678C35.6895 19.9678 36.3193 19.8066 36.8076 19.4844C37.2959 19.1523 37.6621 18.6982 37.9062 18.1221C38.1504 17.5459 38.292 16.8818 38.3311 16.1299V14.2109C38.3115 13.5957 38.2285 13.0439 38.082 12.5557C37.9355 12.0576 37.7305 11.6328 37.4668 11.2812C37.2031 10.9297 36.8613 10.6562 36.4414 10.4609C36.0215 10.2656 35.5234 10.168 34.9473 10.168C34.3906 10.168 33.9072 10.2949 33.4971 10.5488C33.0967 10.793 32.7598 11.1299 32.4863 11.5596C32.2227 11.9893 32.0225 12.4971 31.8857 13.083C31.749 13.6592 31.6807 14.2842 31.6807 14.958ZM49.6836 7.15039V23H45.4502V7.15039H49.6836ZM45.1865 3.01953C45.1865 2.4043 45.4014 1.89648 45.8311 1.49609C46.2607 1.0957 46.8369 0.895508 47.5596 0.895508C48.2725 0.895508 48.8438 1.0957 49.2734 1.49609C49.7129 1.89648 49.9326 2.4043 49.9326 3.01953C49.9326 3.63477 49.7129 4.14258 49.2734 4.54297C48.8438 4.94336 48.2725 5.14355 47.5596 5.14355C46.8369 5.14355 46.2607 4.94336 45.8311 4.54297C45.4014 4.14258 45.1865 3.63477 45.1865 3.01953ZM60.9336 7.15039V10.1387H51.7051V7.15039H60.9336ZM53.9902 3.23926H58.209V18.2246C58.209 18.6836 58.2676 19.0352 58.3848 19.2793C58.5117 19.5234 58.6973 19.6943 58.9414 19.792C59.1855 19.8799 59.4932 19.9238 59.8643 19.9238C60.1279 19.9238 60.3623 19.9141 60.5674 19.8945C60.7822 19.8652 60.9629 19.8359 61.1094 19.8066L61.124 22.9121C60.7627 23.0293 60.3721 23.1221 59.9521 23.1904C59.5322 23.2588 59.0684 23.293 58.5605 23.293C57.6328 23.293 56.8223 23.1416 56.1289 22.8389C55.4453 22.5264 54.918 22.0283 54.5469 21.3447C54.1758 20.6611 53.9902 19.7627 53.9902 18.6494V3.23926ZM71.8906 19.4258V12.3652C71.8906 11.8574 71.8076 11.4229 71.6416 11.0615C71.4756 10.6904 71.2168 10.4023 70.8652 10.1973C70.5234 9.99219 70.0791 9.88965 69.5322 9.88965C69.0635 9.88965 68.6582 9.97266 68.3164 10.1387C67.9746 10.2949 67.7109 10.5244 67.5254 10.8271C67.3398 11.1201 67.2471 11.4668 67.2471 11.8672H63.0283C63.0283 11.1934 63.1846 10.5537 63.4971 9.94824C63.8096 9.34277 64.2637 8.81055 64.8594 8.35156C65.4551 7.88281 66.1631 7.5166 66.9834 7.25293C67.8135 6.98926 68.7412 6.85742 69.7666 6.85742C70.9971 6.85742 72.0908 7.0625 73.0479 7.47266C74.0049 7.88281 74.7568 8.49805 75.3037 9.31836C75.8604 10.1387 76.1387 11.1641 76.1387 12.3945V19.1768C76.1387 20.0459 76.1924 20.7588 76.2998 21.3154C76.4072 21.8623 76.5635 22.3408 76.7686 22.751V23H72.5059C72.3008 22.5703 72.1445 22.0332 72.0371 21.3887C71.9395 20.7344 71.8906 20.0801 71.8906 19.4258ZM72.4473 13.3467L72.4766 15.7344H70.1182C69.5615 15.7344 69.0781 15.7979 68.668 15.9248C68.2578 16.0518 67.9209 16.2324 67.6572 16.4668C67.3936 16.6914 67.1982 16.9551 67.0713 17.2578C66.9541 17.5605 66.8955 17.8926 66.8955 18.2539C66.8955 18.6152 66.9785 18.9424 67.1445 19.2354C67.3105 19.5186 67.5498 19.7432 67.8623 19.9092C68.1748 20.0654 68.541 20.1436 68.9609 20.1436C69.5957 20.1436 70.1475 20.0166 70.6162 19.7627C71.085 19.5088 71.4463 19.1963 71.7002 18.8252C71.9639 18.4541 72.1006 18.1025 72.1104 17.7705L73.2236 19.5576C73.0674 19.958 72.8525 20.373 72.5791 20.8027C72.3154 21.2324 71.9785 21.6377 71.5684 22.0186C71.1582 22.3896 70.665 22.6973 70.0889 22.9414C69.5127 23.1758 68.8291 23.293 68.0381 23.293C67.0322 23.293 66.1191 23.0928 65.2988 22.6924C64.4883 22.2822 63.8438 21.7207 63.3652 21.0078C62.8965 20.2852 62.6621 19.4648 62.6621 18.5469C62.6621 17.7168 62.8184 16.9795 63.1309 16.335C63.4434 15.6904 63.9023 15.1484 64.5078 14.709C65.123 14.2598 65.8896 13.9229 66.8076 13.6982C67.7256 13.4639 68.79 13.3467 70.001 13.3467H72.4473ZM83.8438 0.5V23H79.6104V0.5H83.8438ZM94.1416 23H89.498L89.5273 19.5723H94.1416C95.2939 19.5723 96.2656 19.3135 97.0566 18.7959C97.8477 18.2686 98.4434 17.502 98.8438 16.4961C99.2539 15.4902 99.459 14.2744 99.459 12.8486V11.8086C99.459 10.7148 99.3418 9.75293 99.1074 8.92285C98.8828 8.09277 98.5459 7.39453 98.0967 6.82812C97.6475 6.26172 97.0957 5.83691 96.4414 5.55371C95.7871 5.26074 95.0352 5.11426 94.1855 5.11426H89.4102V1.67188H94.1855C95.6113 1.67188 96.915 1.91602 98.0967 2.4043C99.2881 2.88281 100.318 3.57129 101.188 4.46973C102.057 5.36816 102.726 6.44238 103.194 7.69238C103.673 8.93262 103.912 10.3145 103.912 11.8379V12.8486C103.912 14.3623 103.673 15.7441 103.194 16.9941C102.726 18.2441 102.057 19.3184 101.188 20.2168C100.328 21.1055 99.2979 21.7939 98.0967 22.2822C96.9053 22.7607 95.5869 23 94.1416 23ZM91.9883 1.67188V23H87.5938V1.67188H91.9883ZM114.137 23.293C112.906 23.293 111.803 23.0977 110.826 22.707C109.85 22.3066 109.02 21.7549 108.336 21.0518C107.662 20.3486 107.145 19.5332 106.783 18.6055C106.422 17.668 106.241 16.6719 106.241 15.6172V15.0312C106.241 13.8301 106.412 12.7314 106.754 11.7354C107.096 10.7393 107.584 9.875 108.219 9.14258C108.863 8.41016 109.645 7.84863 110.562 7.45801C111.48 7.05762 112.516 6.85742 113.668 6.85742C114.791 6.85742 115.787 7.04297 116.656 7.41406C117.525 7.78516 118.253 8.3125 118.839 8.99609C119.435 9.67969 119.884 10.5 120.187 11.457C120.489 12.4043 120.641 13.459 120.641 14.6211V16.3789H108.043V13.5664H116.495V13.2441C116.495 12.6582 116.388 12.1357 116.173 11.6768C115.968 11.208 115.655 10.8369 115.235 10.5635C114.815 10.29 114.278 10.1533 113.624 10.1533C113.067 10.1533 112.589 10.2754 112.188 10.5195C111.788 10.7637 111.461 11.1055 111.207 11.5449C110.963 11.9844 110.777 12.502 110.65 13.0977C110.533 13.6836 110.475 14.3281 110.475 15.0312V15.6172C110.475 16.252 110.562 16.8379 110.738 17.375C110.924 17.9121 111.183 18.376 111.515 18.7666C111.856 19.1572 112.267 19.46 112.745 19.6748C113.233 19.8896 113.785 19.9971 114.4 19.9971C115.162 19.9971 115.87 19.8506 116.524 19.5576C117.188 19.2549 117.76 18.8008 118.238 18.1953L120.289 20.4219C119.957 20.9004 119.503 21.3594 118.927 21.7988C118.36 22.2383 117.677 22.5996 116.876 22.8828C116.075 23.1562 115.162 23.293 114.137 23.293ZM127.496 0.5V23H123.263V0.5H127.496ZM135.436 7.15039V23H131.202V7.15039H135.436ZM130.938 3.01953C130.938 2.4043 131.153 1.89648 131.583 1.49609C132.013 1.0957 132.589 0.895508 133.312 0.895508C134.024 0.895508 134.596 1.0957 135.025 1.49609C135.465 1.89648 135.685 2.4043 135.685 3.01953C135.685 3.63477 135.465 4.14258 135.025 4.54297C134.596 4.94336 134.024 5.14355 133.312 5.14355C132.589 5.14355 132.013 4.94336 131.583 4.54297C131.153 4.14258 130.938 3.63477 130.938 3.01953ZM144.312 19.9238L147.828 7.15039H152.237L146.891 23H144.225L144.312 19.9238ZM141.896 7.15039L145.426 19.9385L145.499 23H142.818L137.472 7.15039H141.896ZM161.217 23.293C159.986 23.293 158.883 23.0977 157.906 22.707C156.93 22.3066 156.1 21.7549 155.416 21.0518C154.742 20.3486 154.225 19.5332 153.863 18.6055C153.502 17.668 153.321 16.6719 153.321 15.6172V15.0312C153.321 13.8301 153.492 12.7314 153.834 11.7354C154.176 10.7393 154.664 9.875 155.299 9.14258C155.943 8.41016 156.725 7.84863 157.643 7.45801C158.561 7.05762 159.596 6.85742 160.748 6.85742C161.871 6.85742 162.867 7.04297 163.736 7.41406C164.605 7.78516 165.333 8.3125 165.919 8.99609C166.515 9.67969 166.964 10.5 167.267 11.457C167.569 12.4043 167.721 13.459 167.721 14.6211V16.3789H155.123V13.5664H163.575V13.2441C163.575 12.6582 163.468 12.1357 163.253 11.6768C163.048 11.208 162.735 10.8369 162.315 10.5635C161.896 10.29 161.358 10.1533 160.704 10.1533C160.147 10.1533 159.669 10.2754 159.269 10.5195C158.868 10.7637 158.541 11.1055 158.287 11.5449C158.043 11.9844 157.857 12.502 157.73 13.0977C157.613 13.6836 157.555 14.3281 157.555 15.0312V15.6172C157.555 16.252 157.643 16.8379 157.818 17.375C158.004 17.9121 158.263 18.376 158.595 18.7666C158.937 19.1572 159.347 19.46 159.825 19.6748C160.313 19.8896 160.865 19.9971 161.48 19.9971C162.242 19.9971 162.95 19.8506 163.604 19.5576C164.269 19.2549 164.84 18.8008 165.318 18.1953L167.369 20.4219C167.037 20.9004 166.583 21.3594 166.007 21.7988C165.44 22.2383 164.757 22.5996 163.956 22.8828C163.155 23.1562 162.242 23.293 161.217 23.293ZM174.342 10.6074V23H170.123V7.15039H174.093L174.342 10.6074ZM179.117 7.04785L179.044 10.959C178.839 10.9297 178.59 10.9053 178.297 10.8857C178.014 10.8564 177.755 10.8418 177.521 10.8418C176.925 10.8418 176.407 10.9199 175.968 11.0762C175.538 11.2227 175.177 11.4424 174.884 11.7354C174.601 12.0283 174.386 12.3848 174.239 12.8047C174.103 13.2246 174.024 13.7031 174.005 14.2402L173.155 13.9766C173.155 12.9512 173.258 12.0088 173.463 11.1494C173.668 10.2803 173.966 9.52344 174.356 8.87891C174.757 8.23438 175.245 7.73633 175.821 7.38477C176.397 7.0332 177.057 6.85742 177.799 6.85742C178.033 6.85742 178.272 6.87695 178.517 6.91602C178.761 6.94531 178.961 6.98926 179.117 7.04785Z" fill="#5856D6"/>
    </svg>
    